<?xml version="1.0" encoding="UTF-8"?> <svg xmlns="http://www.w3.org/2000/svg" id="Layer_1" data-name="Layer 1" viewBox="0 0 308.45306 79.54338"><defs><style>.cls-1{fill:#97a3ae;}.cls-2{fill:#323e48;}</style></defs><title>Partners FORUM 2015 LOGO (Disruptive Dozen) 160818_1112</title><path class="cls-1" d="M202.46048,609.82739v-1.25257l.23858-.20973a13.80108,13.80108,0,0,0,2.71488-.40213,1.61907,1.61907,0,0,0,.78887-.76,7.59668,7.59668,0,0,0,.37327-2.74374q.05773-2.17614.05965-5.905v-5.07q0-2.32621-.05965-5.20464a10.27973,10.27973,0,0,0-.38866-3.4441,1.66594,1.66594,0,0,0-.81966-.76,13.28847,13.28847,0,0,0-2.6687-.37327l-.23858-.23859v-1.25257l.23858-.20973q2.95251.23955,6.413.23859,3.60765,0,6.44182-.23859l.23859.20973v1.25257l-.23859.23859a14.33608,14.33608,0,0,0-2.73027.40213,1.48788,1.48788,0,0,0-.7754.76,8.566,8.566,0,0,0-.35788,2.74374q-.075,2.179-.07312,5.87614v5.07q0,2.44453.05773,5.27775a10.61986,10.61986,0,0,0,.37327,3.40177,1.5211,1.5211,0,0,0,.81966.74462,15.96035,15.96035,0,0,0,2.686.38674l.23859.20973v1.25257l-.23859.23859q-2.95539-.23955-6.44182-.23859-3.57879,0-6.413.23859Z" transform="translate(-151.63591 -567.62848)"></path><path class="cls-1" d="M223.28287,602.66982h1.31222l.17894.17893a8.50811,8.50811,0,0,0,.55029,3.50375,3.86175,3.86175,0,0,0,2.01451,1.80479,8.64446,8.64446,0,0,0,3.54993.65611,8.1526,8.1526,0,0,0,5.51633-1.68549,5.55191,5.55191,0,0,0,1.93755-4.39845,5.35955,5.35955,0,0,0-.44639-2.2377,3.207,3.207,0,0,0-1.38533-1.50463,6.863,6.863,0,0,0-1.93948-.73115q-.99859-.20781-2.78991-.508a24.58273,24.58273,0,0,1-4.78711-1.13136,5.59112,5.59112,0,0,1-2.63791-2.20884,6.81725,6.81725,0,0,1-1.04478-3.84624,9.00645,9.00645,0,0,1,1.40265-4.78711,8.46314,8.46314,0,0,1,3.9232-3.38445,14.665,14.665,0,0,1,12.926.86583,26.24787,26.24787,0,0,0-.65419,5.63563l-.20972.17894h-1.19293l-.17894-.17894a12.05156,12.05156,0,0,0-.3117-3.14587,3.41889,3.41889,0,0,0-1.55081-1.64124,6.11235,6.11235,0,0,0-3.26709-.7908,7.07567,7.07567,0,0,0-4.75632,1.49309,4.89133,4.89133,0,0,0-1.74514,3.90588,3.97541,3.97541,0,0,0,.64072,2.34161,3.35506,3.35506,0,0,0,1.6547,1.268,22.02062,22.02062,0,0,0,3.34021.74462,39.25862,39.25862,0,0,1,5.90692,1.29683,5.67009,5.67009,0,0,1,2.84764,2.282,7.17161,7.17161,0,0,1,1.11789,4.08482,8.95474,8.95474,0,0,1-3.4595,7.11333,13.66108,13.66108,0,0,1-9.09512,2.90728,19.99757,19.99757,0,0,1-7.96377-1.60853,41.4051,41.4051,0,0,0,.41753-6.29367Z" transform="translate(-151.63591 -567.62848)"></path><path class="cls-1" d="M259.88271,595.60075l.41753-.56568h.86583q4.35228,0,6.0089-1.62585a5.50717,5.50717,0,0,0,1.65471-4.10021,5.1727,5.1727,0,0,0-1.4469-3.84816,5.97631,5.97631,0,0,0-4.36959-1.43152,18.373,18.373,0,0,0-4.17525.508v14.01692q0,2.44453.06157,5.27775a10.58408,10.58408,0,0,0,.37135,3.40177,1.52446,1.52446,0,0,0,.82158.74462,15.886,15.886,0,0,0,2.68216.38674l.23859.20973v1.25257l-.23859.23859q-2.9496-.23955-6.44181-.23859-3.57879,0-6.411.23859l-.23858-.23859v-1.25257l.23858-.20973a13.74143,13.74143,0,0,0,2.713-.40213,1.60689,1.60689,0,0,0,.7908-.76,7.59668,7.59668,0,0,0,.37327-2.74374q.06062-2.17614.05965-5.905v-5.07q0-2.32621-.05965-5.20464a10.35763,10.35763,0,0,0-.38674-3.4441,1.66944,1.66944,0,0,0-.82158-.76,13.28847,13.28847,0,0,0-2.6687-.37327l-.23858-.23859v-1.25257l.23858-.20973q2.80242.23955,6.411.23859.77636,0,4.41383-.1193,4.892-.11832,5.48748-.11929a12.86912,12.86912,0,0,1,4.07135.5676,6.035,6.035,0,0,1,2.863,2.07224,5.5709,5.5709,0,0,1,1.17754,3.53453,6.88189,6.88189,0,0,1-1.81826,4.62357,10.9428,10.9428,0,0,1-5.75492,3.07083l8.64682,10.25919a10.43662,10.43662,0,0,0,1.86443,1.849,3.49335,3.49335,0,0,0,1.71435.38674l.23859.20973v1.25257l-.23859.23859a30.73358,30.73358,0,0,0-3.3402-.2078,34.195,34.195,0,0,0-3.69808.2078Z" transform="translate(-151.63591 -567.62848)"></path><path class="cls-1" d="M282.58493,583.46365v-1.25257l.23859-.20973q2.9496.23955,6.411.23859,3.60765,0,6.44182-.23859l.23858.20973v1.25257l-.23858.23859a14.30407,14.30407,0,0,0-2.72835.40213,1.48118,1.48118,0,0,0-.7754.76,8.45152,8.45152,0,0,0-.35788,2.74374q-.075,2.179-.075,5.87614v5.27967a16.222,16.222,0,0,0,.62725,5.2335,5.06685,5.06685,0,0,0,2.32429,2.69756,9.35755,9.35755,0,0,0,4.68321.98513,10.96707,10.96707,0,0,0,4.11561-.64072,5.31227,5.31227,0,0,0,2.37046-1.78939,7.91507,7.91507,0,0,0,1.19293-3.192,32.74358,32.74358,0,0,0,.37327-5.59138l-.05964-7.09793a33.28731,33.28731,0,0,0-.13469-4.20411,1.4886,1.4886,0,0,0-.59646-.92548,9.47256,9.47256,0,0,0-3.20552-.53682l-.2078-.23859v-1.25257l.2078-.20973q2.65523.23955,5.09881.23859,2.534,0,5.24889-.23859l.23859.20973v1.25257l-.23859.23859a11.05606,11.05606,0,0,0-3.10162.49256,1.28627,1.28627,0,0,0-.64072.8947,37.64215,37.64215,0,0,0-.19433,4.25029l-.14815,10.16876a18.48027,18.48027,0,0,1-.76,5.59138,7.61276,7.61276,0,0,1-2.282,3.32673,10.14218,10.14218,0,0,1-3.50375,1.95294,16.68971,16.68971,0,0,1-4.93527.60994,18.19992,18.19992,0,0,1-5.16038-.64072,9.64714,9.64714,0,0,1-3.51914-1.80287,7.17826,7.17826,0,0,1-2.07223-3.07275,15.15542,15.15542,0,0,1-.70037-5.10074v-6.8882q0-2.32621-.06157-5.20464a10.30236,10.30236,0,0,0-.38674-3.4441,1.67379,1.67379,0,0,0-.81966-.76,13.31454,13.31454,0,0,0-2.66869-.37327Z" transform="translate(-151.63591 -567.62848)"></path><path class="cls-1" d="M329.35161,584.56807v13.98614q0,2.44453.06157,5.27775a10.58439,10.58439,0,0,0,.37135,3.40177,1.52446,1.52446,0,0,0,.82158.74462,15.886,15.886,0,0,0,2.68217.38674l.23858.20973v1.25257l-.23858.23859q-2.94961-.23955-6.44182-.23859-3.57879,0-6.411.23859l-.23859-.23859v-1.25257l.23859-.20973a13.74158,13.74158,0,0,0,2.71295-.40213,1.60691,1.60691,0,0,0,.79079-.76,7.59683,7.59683,0,0,0,.37328-2.74374q.0606-2.17614.05964-5.905v-5.07q0-2.32621-.05964-5.20464a10.35792,10.35792,0,0,0-.38674-3.4441,1.6695,1.6695,0,0,0-.82159-.76,13.28845,13.28845,0,0,0-2.66869-.37327l-.23859-.23859v-1.25257l.23859-.20973q2.95249.23955,6.411.23859.77637,0,3.3402-.08851,2.83418-.08948,5.31046-.08851a15.17526,15.17526,0,0,1,5.651.78887,5.80611,5.80611,0,0,1,2.80339,2.4609,6.8016,6.8016,0,0,1,.96973,3.4595,7.27743,7.27743,0,0,1-1.50655,4.39844,8.64865,8.64865,0,0,1-3.95206,2.98233,13.23875,13.23875,0,0,1-4.77172.94087,14.62424,14.62424,0,0,1-2.71487-.23858l-.26745-1.19293.20972-.20973a14.62046,14.62046,0,0,0,4.42731-.52142,4.27644,4.27644,0,0,0,2.40125-1.92408,6.29623,6.29623,0,0,0,.835-3.28056,5.43633,5.43633,0,0,0-1.57967-4.21951,6.53581,6.53581,0,0,0-4.56391-1.4469A17.01472,17.01472,0,0,0,329.35161,584.56807Z" transform="translate(-151.63591 -567.62848)"></path><path class="cls-1" d="M349.16193,582.21108l.23859-.20973q5.81265.30016,13.02987.30016,7.33651,0,13.03371-.30016l.2078.20973q-.17893,3.93666-.177,6.65154l-.18086.177H374.1211l-.177-.177a22.952,22.952,0,0,0-.62725-3.80391,1.28711,1.28711,0,0,0-.66958-.76,5.16874,5.16874,0,0,0-1.68549-.17894H364.9086l-.11929,7.63475v6.7997q0,2.20788.05772,5.145a11.79859,11.79859,0,0,0,.35788,3.50375,1.54338,1.54338,0,0,0,.80427.76,14.39357,14.39357,0,0,0,2.7168.40213l.23858.20973v1.25257l-.23858.23859q-2.98425-.23955-6.29559-.23859-3.45758,0-6.29174.23859l-.23859-.23859v-1.25257l.23859-.20973a14.10763,14.10763,0,0,0,2.72834-.40213,1.52583,1.52583,0,0,0,.79272-.77541,8.8662,8.8662,0,0,0,.35788-2.89189q.05772-2.31177.05772-5.74145v-6.70927q-.08658-3.87894-.15007-7.72518h-6.05316a4.892,4.892,0,0,0-1.71243.19434,1.32621,1.32621,0,0,0-.658.835,26.91717,26.91717,0,0,0-.61186,3.71347l-.177.177h-1.16407l-.20972-.177Q349.339,587.66777,349.16193,582.21108Z" transform="translate(-151.63591 -567.62848)"></path><path class="cls-1" d="M381.28637,609.82739v-1.25257l.23859-.20973a13.7987,13.7987,0,0,0,2.71295-.40213,1.60355,1.60355,0,0,0,.78887-.76,7.50759,7.50759,0,0,0,.37327-2.74374q.06349-2.17614.06157-5.905v-5.07q0-2.32621-.06157-5.20464a10.22561,10.22561,0,0,0-.38866-3.4441,1.64286,1.64286,0,0,0-.81966-.76,13.25907,13.25907,0,0,0-2.66677-.37327l-.23859-.23859v-1.25257l.23859-.20973q2.9496.23955,6.411.23859,3.60765,0,6.44182-.23859l.23858.20973v1.25257l-.23858.23859a14.274,14.274,0,0,0-2.72835.40213,1.49111,1.49111,0,0,0-.77733.76,8.56614,8.56614,0,0,0-.35787,2.74374q-.075,2.179-.07312,5.87614v5.07q0,2.44453.05772,5.27775a10.6805,10.6805,0,0,0,.37327,3.40177,1.54079,1.54079,0,0,0,.81966.74462,15.99755,15.99755,0,0,0,2.686.38674l.23858.20973v1.25257l-.23858.23859q-2.95539-.23955-6.44182-.23859-3.57879,0-6.411.23859Z" transform="translate(-151.63591 -567.62848)"></path><path class="cls-1" d="M416.574,610.18527h-2.686l-6.5919-15.56773q-3.39986-8.02341-3.90588-8.84307a4.09967,4.09967,0,0,0-1.23526-1.29683,7.00113,7.00113,0,0,0-2.49361-.7754l-.23859-.23859v-1.25257l.23859-.20973q3.52107.23955,6.44182.23859,3.192,0,6.35331-.23859l.2078.20973v1.25257l-.2078.23859a7.63418,7.63418,0,0,0-2.78607.7754,1.13665,1.13665,0,0,0-.46562.8947,2.6523,2.6523,0,0,0,.19625.95434c.127.33864.54259,1.37187,1.23526,3.10162l6.08394,14.70382h.53874l5.16039-12.52576q1.368-3.34213,1.6701-4.22143a4.82222,4.82222,0,0,0,.2963-1.47577,1.72792,1.72792,0,0,0-.58107-1.29683q-.583-.55125-3.32481-.91009l-.23858-.23859v-1.25257l.23858-.20973q3.22092.23955,5.69528.23859a50.884,50.884,0,0,0,5.1296-.23859l.23858.20973v1.25257l-.23858.23859a5.73054,5.73054,0,0,0-1.8933.56568,5.99152,5.99152,0,0,0-1.60853,1.55081,26.0671,26.0671,0,0,0-2.46282,4.51966q-1.547,3.35367-4.17525,9.3491Z" transform="translate(-151.63591 -567.62848)"></path><path class="cls-1" d="M459.912,601.98484l.177.177q-.4156,3.61053-.65419,7.66553l-.2078.17894q-10.771-.17894-11.125-.17894-7.071,0-11.92929.23859l-.23859-.23859v-1.25257l.23859-.20973a13.7987,13.7987,0,0,0,2.713-.40213,1.60355,1.60355,0,0,0,.78887-.76,7.50759,7.50759,0,0,0,.37327-2.74374q.06349-2.17614.06157-5.905v-5.07q0-2.32621-.06157-5.20464a10.38077,10.38077,0,0,0-.38481-3.4441,1.66523,1.66523,0,0,0-.82351-.76,13.25907,13.25907,0,0,0-2.66677-.37327l-.23859-.23859v-1.25257l.23859-.20973q3.84431.23955,11.92929.23859,7.18644,0,10.70558-.23859l.15008.23859a31.82862,31.82862,0,0,0-.59647,6.05508v.80619l-.18086.14815h-1.40073l-.177-.14815a21.54994,21.54994,0,0,0-.70422-4.46c-.18856-.32709-1.1352-.49257-2.84764-.49257l-4.82944-.05772q-1.04476,0-3.04389.02886-.11544,2.50515-.11929,5.18925,0,4.47348.03078,5.399l3.22091-.06157q3.31328-.05772,3.84816-.16354a1.17643,1.17643,0,0,0,.81966-.58108,12.49936,12.49936,0,0,0,.64264-3.13047l.177-.18087h1.28143l.15008.18087q-.05772,2.80242-.05772,3.72694,0,4.29454.08851,6.05508l-.18087.177h-1.31222l-.177-.177a11.65011,11.65011,0,0,0-.508-3.10162,1.43031,1.43031,0,0,0-.92356-.80619,22.61213,22.61213,0,0,0-3.72887-.23858l-3.3402-.05965q-.05772,3.07083-.05772,4.62164.08658,3.4316.14623,6.83048,3.22091.02886,3.55185.03079,2.26272,0,5.03724-.1193a9.50716,9.50716,0,0,0,3.16319-.404,2.95486,2.95486,0,0,0,.685-1.59506l.835-3.51915.2078-.2078Z" transform="translate(-151.63591 -567.62848)"></path><path class="cls-2" d="M266.2341,634.57683c0,7.84062-4.75633,12.595-11.74458,12.595-7.09408,0-11.24432-5.35663-11.24432-12.16788,0-7.16719,4.57546-12.52383,11.63683-12.52383C262.22432,622.48014,266.2341,627.97916,266.2341,634.57683Zm-17.27824.3194c0,4.68321,2.20115,7.983,5.81842,7.983,3.65383,0,5.74723-3.47681,5.74723-8.12346,0-4.29262-2.05684-7.983-5.78186-7.983C251.0839,626.77276,248.95586,630.24957,248.95586,634.89623Z" transform="translate(-151.63591 -567.62848)"></path><path class="cls-2" d="M289.527,643.87206l11.3867-16.38931v-.14238H290.5891v-4.46964h17.3475v3.12278L296.8,642.16925v.14238h11.31551v4.46964H289.527Z" transform="translate(-151.63591 -567.62848)"></path><path class="cls-2" d="M347.01851,636.67023h-8.79689v5.676H348.046v4.435H332.79186V622.87073h14.7577v4.435h-9.32794v4.966h8.79689Z" transform="translate(-151.63591 -567.62848)"></path><path class="cls-2" d="M373.009,646.78127V622.87073h6.31483l4.968,8.76226a69.76623,69.76623,0,0,1,3.902,8.19465h.10582a88.46821,88.46821,0,0,1-.45986-9.96865v-6.98826h4.96413v23.91054h-5.676l-5.10651-9.224a88.18053,88.18053,0,0,1-4.15217-8.44286l-.10582.03655c.14046,3.1555.21357,6.52648.21357,10.42852v7.20183Z" transform="translate(-151.63591 -567.62848)"></path><path class="cls-1" d="M154.14106,569.77575a6.75638,6.75638,0,0,1,1.47577.28284,1.44991,1.44991,0,0,1,.62725.40213,2.269,2.269,0,0,1,.34249.835,11.52557,11.52557,0,0,1,.20972,1.98373q.05773,1.38534.05773,3.59225l.03078,6.77084v7.14868l5.58272,5.5826-.0356-5.21582v-9.3645q0-6.14454.23859-11.0346a48.187,48.187,0,0,1,7.69439-.59646q9.69159,0,14.19586,4.65242,4.50236,4.65243,4.50235,13.09337a24.75692,24.75692,0,0,1-2.05684,10.288,14.45368,14.45368,0,0,1-6.21863,6.89013,19.41576,19.41576,0,0,1-7.477,2.13032l2.47052,2.47112c.61089-.08478,1.22756-.14587,1.8298-.26264a21.23254,21.23254,0,0,0,6.60729-2.54941,21.761,21.761,0,0,0,5.87421-5.02569,23.14111,23.14111,0,0,0,3.98092-7.05368,23.57452,23.57452,0,0,0,1.40266-7.96184,19.92537,19.92537,0,0,0-1.53542-7.80022,18.46238,18.46238,0,0,0-4.50427-6.411,16.76112,16.76112,0,0,0-6.7843-3.877,35.54547,35.54547,0,0,0-9.782-1.11789l-13.95728.2963q-1.87885,0-7.03828-.23858l-.23859.20972v1.49116l.23859.20781Z" transform="translate(-151.63591 -567.62848)"></path><path class="cls-2" d="M203.81118,637.71777V627.05753a11.12889,11.12889,0,0,1,2.44743-.21358c4.64665,0,7.55586,2.62637,7.52123,7.59242,0,4.50584-2.00874,7.10659-5.25178,7.99828l3.46816,3.46755a11.68792,11.68792,0,0,0,3.55762-1.95895c2.305-1.951,3.9713-5.10843,3.9713-9.68389,0-4.22336-1.5585-7.1672-4.04441-9.01239-2.305-1.73745-5.24889-2.55326-9.78972-2.55326a48.2327,48.2327,0,0,0-7.30766.49642v9.09981Z" transform="translate(-151.63591 -567.62848)"></path></svg> 