<?xml version="1.0" encoding="UTF-8"?> <svg xmlns="http://www.w3.org/2000/svg" xmlns:xlink="http://www.w3.org/1999/xlink" viewBox="0 0 763.53 544.7"><defs><style>.cls-1{fill:none;}.cls-2{clip-path:url(#clip-path);}.cls-3{fill:#97a3ae;}</style><clipPath id="clip-path" transform="translate(-42.29 -8.75)"><rect class="cls-1" width="900" height="613.33"></rect></clipPath></defs><title>Light Grey Dots</title><g id="Layer_2" data-name="Layer 2"><g id="Layer_1-2" data-name="Layer 1"><g class="cls-2"><path class="cls-3" d="M588.53,335.2a1.5,1.5,0,1,1-1.5-1.5,1.5,1.5,0,0,1,1.5,1.5" transform="translate(-42.29 -8.75)"></path><path class="cls-3" d="M479.89,335.2a1.51,1.51,0,1,1-1.51-1.5,1.51,1.51,0,0,1,1.51,1.5" transform="translate(-42.29 -8.75)"></path><path class="cls-3" d="M371.24,335.2a1.51,1.51,0,1,1-1.5-1.5,1.5,1.5,0,0,1,1.5,1.5" transform="translate(-42.29 -8.75)"></path><path class="cls-3" d="M262.59,335.2a1.5,1.5,0,1,1-1.5-1.5,1.5,1.5,0,0,1,1.5,1.5" transform="translate(-42.29 -8.75)"></path><path class="cls-3" d="M154,335.2a1.51,1.51,0,1,1-1.51-1.5,1.51,1.51,0,0,1,1.51,1.5" transform="translate(-42.29 -8.75)"></path><path class="cls-3" d="M45.3,335.2a1.51,1.51,0,1,1-1.5-1.5,1.5,1.5,0,0,1,1.5,1.5" transform="translate(-42.29 -8.75)"></path><path class="cls-3" d="M805.83,335.2a1.51,1.51,0,1,1-1.51-1.5,1.51,1.51,0,0,1,1.51,1.5" transform="translate(-42.29 -8.75)"></path><path class="cls-3" d="M697.18,335.2a1.51,1.51,0,1,1-1.5-1.5,1.5,1.5,0,0,1,1.5,1.5" transform="translate(-42.29 -8.75)"></path><path class="cls-3" d="M697.18,226.83a1.51,1.51,0,0,1-3,0,1.51,1.51,0,1,1,3,0" transform="translate(-42.29 -8.75)"></path><path class="cls-3" d="M588.53,226.83a1.5,1.5,0,1,1-1.5-1.51,1.5,1.5,0,0,1,1.5,1.51" transform="translate(-42.29 -8.75)"></path><path class="cls-3" d="M479.89,226.83a1.51,1.51,0,1,1-1.51-1.51,1.51,1.51,0,0,1,1.51,1.51" transform="translate(-42.29 -8.75)"></path><path class="cls-3" d="M371.24,226.83a1.51,1.51,0,0,1-3,0,1.51,1.51,0,1,1,3,0" transform="translate(-42.29 -8.75)"></path><path class="cls-3" d="M262.59,226.83a1.5,1.5,0,1,1-1.5-1.51,1.5,1.5,0,0,1,1.5,1.51" transform="translate(-42.29 -8.75)"></path><path class="cls-3" d="M154,226.83a1.51,1.51,0,1,1-1.51-1.51,1.51,1.51,0,0,1,1.51,1.51" transform="translate(-42.29 -8.75)"></path><path class="cls-3" d="M45.3,226.83a1.51,1.51,0,0,1-3,0,1.51,1.51,0,1,1,3,0" transform="translate(-42.29 -8.75)"></path><path class="cls-3" d="M805.83,226.83a1.51,1.51,0,1,1-1.51-1.51,1.51,1.51,0,0,1,1.51,1.51" transform="translate(-42.29 -8.75)"></path><path class="cls-3" d="M697.18,443.74a1.51,1.51,0,0,1-3,0,1.51,1.51,0,1,1,3,0" transform="translate(-42.29 -8.75)"></path><path class="cls-3" d="M588.53,443.74a1.5,1.5,0,1,1-1.5-1.51,1.5,1.5,0,0,1,1.5,1.51" transform="translate(-42.29 -8.75)"></path><path class="cls-3" d="M479.89,443.74a1.51,1.51,0,1,1-1.51-1.51,1.51,1.51,0,0,1,1.51,1.51" transform="translate(-42.29 -8.75)"></path><path class="cls-3" d="M371.24,443.74a1.51,1.51,0,0,1-3,0,1.51,1.51,0,1,1,3,0" transform="translate(-42.29 -8.75)"></path><path class="cls-3" d="M262.59,443.74a1.5,1.5,0,1,1-1.5-1.51,1.5,1.5,0,0,1,1.5,1.51" transform="translate(-42.29 -8.75)"></path><path class="cls-3" d="M154,443.74a1.51,1.51,0,1,1-1.51-1.51,1.51,1.51,0,0,1,1.51,1.51" transform="translate(-42.29 -8.75)"></path><path class="cls-3" d="M45.3,443.74a1.51,1.51,0,0,1-3,0,1.51,1.51,0,1,1,3,0" transform="translate(-42.29 -8.75)"></path><path class="cls-3" d="M805.83,443.74a1.51,1.51,0,1,1-1.51-1.51,1.51,1.51,0,0,1,1.51,1.51" transform="translate(-42.29 -8.75)"></path><path class="cls-3" d="M697.18,551.94a1.51,1.51,0,1,1-1.5-1.5,1.5,1.5,0,0,1,1.5,1.5" transform="translate(-42.29 -8.75)"></path><path class="cls-3" d="M588.53,551.94a1.5,1.5,0,1,1-1.5-1.5,1.5,1.5,0,0,1,1.5,1.5" transform="translate(-42.29 -8.75)"></path><path class="cls-3" d="M479.89,551.94a1.51,1.51,0,1,1-1.51-1.5,1.51,1.51,0,0,1,1.51,1.5" transform="translate(-42.29 -8.75)"></path><path class="cls-3" d="M371.24,551.94a1.51,1.51,0,1,1-1.5-1.5,1.5,1.5,0,0,1,1.5,1.5" transform="translate(-42.29 -8.75)"></path><path class="cls-3" d="M262.59,551.94a1.5,1.5,0,1,1-1.5-1.5,1.5,1.5,0,0,1,1.5,1.5" transform="translate(-42.29 -8.75)"></path><path class="cls-3" d="M154,551.94a1.51,1.51,0,1,1-1.51-1.5,1.51,1.51,0,0,1,1.51,1.5" transform="translate(-42.29 -8.75)"></path><path class="cls-3" d="M45.3,551.94a1.51,1.51,0,1,1-1.5-1.5,1.5,1.5,0,0,1,1.5,1.5" transform="translate(-42.29 -8.75)"></path><path class="cls-3" d="M805.83,551.94a1.51,1.51,0,1,1-1.51-1.5,1.51,1.51,0,0,1,1.51,1.5" transform="translate(-42.29 -8.75)"></path><path class="cls-3" d="M697.18,10.25a1.51,1.51,0,1,1-1.5-1.5,1.5,1.5,0,0,1,1.5,1.5" transform="translate(-42.29 -8.75)"></path><path class="cls-3" d="M588.53,10.25a1.5,1.5,0,1,1-1.5-1.5,1.5,1.5,0,0,1,1.5,1.5" transform="translate(-42.29 -8.75)"></path><path class="cls-3" d="M479.89,10.25a1.51,1.51,0,1,1-1.51-1.5,1.51,1.51,0,0,1,1.51,1.5" transform="translate(-42.29 -8.75)"></path><path class="cls-3" d="M371.24,10.25a1.51,1.51,0,1,1-1.5-1.5,1.5,1.5,0,0,1,1.5,1.5" transform="translate(-42.29 -8.75)"></path><path class="cls-3" d="M262.59,10.25a1.5,1.5,0,1,1-1.5-1.5,1.5,1.5,0,0,1,1.5,1.5" transform="translate(-42.29 -8.75)"></path><path class="cls-3" d="M154,10.25a1.51,1.51,0,1,1-1.51-1.5,1.51,1.51,0,0,1,1.51,1.5" transform="translate(-42.29 -8.75)"></path><path class="cls-3" d="M45.3,10.25a1.51,1.51,0,1,1-1.5-1.5,1.5,1.5,0,0,1,1.5,1.5" transform="translate(-42.29 -8.75)"></path><path class="cls-3" d="M805.83,10.25a1.51,1.51,0,1,1-1.51-1.5,1.51,1.51,0,0,1,1.51,1.5" transform="translate(-42.29 -8.75)"></path><path class="cls-3" d="M697.18,118.46a1.51,1.51,0,0,1-3,0,1.51,1.51,0,1,1,3,0" transform="translate(-42.29 -8.75)"></path><path class="cls-3" d="M588.53,118.46A1.5,1.5,0,1,1,587,117a1.5,1.5,0,0,1,1.5,1.51" transform="translate(-42.29 -8.75)"></path><path class="cls-3" d="M479.89,118.46a1.51,1.51,0,1,1-1.51-1.51,1.51,1.51,0,0,1,1.51,1.51" transform="translate(-42.29 -8.75)"></path><path class="cls-3" d="M371.24,118.46a1.51,1.51,0,0,1-3,0,1.51,1.51,0,1,1,3,0" transform="translate(-42.29 -8.75)"></path><path class="cls-3" d="M262.59,118.46a1.5,1.5,0,1,1-1.5-1.51,1.5,1.5,0,0,1,1.5,1.51" transform="translate(-42.29 -8.75)"></path><path class="cls-3" d="M154,118.46a1.51,1.51,0,1,1-1.51-1.51,1.51,1.51,0,0,1,1.51,1.51" transform="translate(-42.29 -8.75)"></path><path class="cls-3" d="M45.3,118.46a1.51,1.51,0,0,1-3,0,1.51,1.51,0,1,1,3,0" transform="translate(-42.29 -8.75)"></path><path class="cls-3" d="M805.83,118.46a1.51,1.51,0,1,1-1.51-1.51,1.51,1.51,0,0,1,1.51,1.51" transform="translate(-42.29 -8.75)"></path></g></g></g></svg> 