<?xml version="1.0" encoding="UTF-8"?> <svg xmlns="http://www.w3.org/2000/svg" id="Layer_1" data-name="Layer 1" viewBox="0 0 1920 1038"><defs><style>.cls-1{fill:none;}.cls-2{fill:#afe2e2;}</style></defs><rect class="cls-1" x="35.12" y="26.6" width="1850" height="978.52"></rect><path class="cls-2" d="M1776.48,570a1.51,1.51,0,0,1-3,.35,2,2,0,0,1,0-.35,1.51,1.51,0,0,1,3,0"></path><path class="cls-2" d="M1667.83,570a1.51,1.51,0,1,1-1.52-1.5h0a1.51,1.51,0,0,1,1.5,1.5"></path><path class="cls-2" d="M798.66,570a1.51,1.51,0,0,1-3,.35,2,2,0,0,1,0-.35,1.51,1.51,0,0,1,3,0"></path><path class="cls-2" d="M1559.18,570a1.5,1.5,0,1,1-1.5-1.5,1.5,1.5,0,0,1,1.5,1.5"></path><path class="cls-2" d="M690,570a1.51,1.51,0,1,1-1.52-1.5h0A1.51,1.51,0,0,1,690,570"></path><path class="cls-2" d="M1450.54,570a1.51,1.51,0,0,1-3,.35,2,2,0,0,1,0-.35,1.51,1.51,0,0,1,3,0"></path><path class="cls-2" d="M581.36,570a1.5,1.5,0,1,1-1.5-1.5,1.5,1.5,0,0,1,1.5,1.5"></path><path class="cls-2" d="M1341.89,570a1.51,1.51,0,1,1-1.52-1.5h0a1.51,1.51,0,0,1,1.5,1.5"></path><path class="cls-2" d="M472.72,570a1.51,1.51,0,0,1-3,.35,2,2,0,0,1,0-.35,1.51,1.51,0,0,1,3,0"></path><path class="cls-2" d="M1233.24,570a1.5,1.5,0,1,1-1.5-1.5,1.5,1.5,0,0,1,1.5,1.5"></path><path class="cls-2" d="M364.07,570a1.51,1.51,0,1,1-1.52-1.5h0a1.51,1.51,0,0,1,1.5,1.5"></path><path class="cls-2" d="M1124.6,570a1.51,1.51,0,0,1-3,.35,2,2,0,0,1,0-.35,1.51,1.51,0,0,1,3,0"></path><path class="cls-2" d="M255.42,570a1.5,1.5,0,1,1-1.5-1.5,1.5,1.5,0,0,1,1.5,1.5"></path><path class="cls-2" d="M1016,570a1.51,1.51,0,1,1-1.52-1.5h0a1.51,1.51,0,0,1,1.5,1.5"></path><path class="cls-2" d="M146.78,570a1.51,1.51,0,0,1-3,.35,2,2,0,0,1,0-.35,1.51,1.51,0,0,1,3,0"></path><path class="cls-2" d="M1885.12,570a1.5,1.5,0,1,1-1.5-1.5,1.5,1.5,0,0,1,1.5,1.5"></path><path class="cls-2" d="M38.13,570a1.51,1.51,0,1,1-1.52-1.5h0a1.51,1.51,0,0,1,1.5,1.5"></path><path class="cls-2" d="M907.3,570a1.5,1.5,0,1,1-1.5-1.5,1.5,1.5,0,0,1,1.5,1.5"></path><path class="cls-2" d="M907.3,461.59a1.5,1.5,0,1,1-1.5-1.5,1.5,1.5,0,0,1,1.5,1.5"></path><path class="cls-2" d="M1776.48,461.59a1.51,1.51,0,1,1-1.52-1.5h0a1.51,1.51,0,0,1,1.51,1.5"></path><path class="cls-2" d="M1667.83,461.59a1.51,1.51,0,1,1-1.52-1.5h0a1.5,1.5,0,0,1,1.5,1.5"></path><path class="cls-2" d="M798.66,461.59a1.51,1.51,0,1,1-1.52-1.5h0a1.51,1.51,0,0,1,1.51,1.5"></path><path class="cls-2" d="M1559.18,461.59a1.5,1.5,0,1,1-1.5-1.5,1.5,1.5,0,0,1,1.5,1.5"></path><path class="cls-2" d="M690,461.59a1.51,1.51,0,1,1-1.52-1.5h0a1.5,1.5,0,0,1,1.5,1.5"></path><path class="cls-2" d="M1450.54,461.59a1.51,1.51,0,1,1-1.52-1.5h0a1.51,1.51,0,0,1,1.51,1.5"></path><path class="cls-2" d="M581.36,461.59a1.5,1.5,0,1,1-1.5-1.5,1.5,1.5,0,0,1,1.5,1.5"></path><path class="cls-2" d="M1341.89,461.59a1.51,1.51,0,1,1-1.52-1.5h0a1.5,1.5,0,0,1,1.5,1.5"></path><path class="cls-2" d="M472.72,461.59a1.51,1.51,0,1,1-1.52-1.5h0a1.51,1.51,0,0,1,1.51,1.5"></path><path class="cls-2" d="M1233.24,461.59a1.5,1.5,0,1,1-1.5-1.5,1.5,1.5,0,0,1,1.5,1.5"></path><path class="cls-2" d="M364.07,461.59a1.51,1.51,0,1,1-1.52-1.5h0a1.5,1.5,0,0,1,1.5,1.5"></path><path class="cls-2" d="M1124.6,461.59a1.51,1.51,0,1,1-1.52-1.5h0a1.51,1.51,0,0,1,1.51,1.5"></path><path class="cls-2" d="M255.42,461.59a1.5,1.5,0,1,1-1.5-1.5,1.5,1.5,0,0,1,1.5,1.5"></path><path class="cls-2" d="M1016,461.59a1.51,1.51,0,1,1-1.52-1.5h0a1.5,1.5,0,0,1,1.5,1.5"></path><path class="cls-2" d="M146.78,461.59a1.51,1.51,0,1,1-1.52-1.5h0a1.51,1.51,0,0,1,1.51,1.5"></path><path class="cls-2" d="M1885.12,461.59a1.5,1.5,0,1,1-1.5-1.5,1.5,1.5,0,0,1,1.5,1.5"></path><path class="cls-2" d="M38.13,461.59a1.51,1.51,0,1,1-1.52-1.5h0a1.5,1.5,0,0,1,1.5,1.5"></path><path class="cls-2" d="M907.3,678.5a1.5,1.5,0,1,1-1.5-1.5,1.5,1.5,0,0,1,1.5,1.5"></path><path class="cls-2" d="M1776.48,678.5A1.51,1.51,0,1,1,1775,677h0a1.51,1.51,0,0,1,1.51,1.5"></path><path class="cls-2" d="M1667.83,678.5a1.51,1.51,0,1,1-1.52-1.5h0a1.5,1.5,0,0,1,1.5,1.5"></path><path class="cls-2" d="M798.66,678.5a1.51,1.51,0,1,1-1.52-1.5h0a1.51,1.51,0,0,1,1.51,1.5"></path><path class="cls-2" d="M1559.18,678.5a1.5,1.5,0,1,1-1.5-1.5,1.5,1.5,0,0,1,1.5,1.5"></path><path class="cls-2" d="M690,678.5a1.51,1.51,0,1,1-1.52-1.5h0a1.5,1.5,0,0,1,1.5,1.5"></path><path class="cls-2" d="M1450.54,678.5A1.51,1.51,0,1,1,1449,677a1.52,1.52,0,0,1,1.54,1.5"></path><path class="cls-2" d="M581.36,678.5a1.5,1.5,0,1,1-1.5-1.5,1.5,1.5,0,0,1,1.5,1.5"></path><path class="cls-2" d="M1341.89,678.5a1.51,1.51,0,1,1-1.52-1.5h0a1.5,1.5,0,0,1,1.5,1.5"></path><path class="cls-2" d="M472.72,678.5a1.51,1.51,0,1,1-1.52-1.5h0a1.51,1.51,0,0,1,1.51,1.5"></path><path class="cls-2" d="M1233.24,678.5a1.5,1.5,0,1,1-1.5-1.5,1.5,1.5,0,0,1,1.5,1.5"></path><path class="cls-2" d="M364.07,678.5a1.51,1.51,0,1,1-1.52-1.5h0a1.5,1.5,0,0,1,1.5,1.5"></path><path class="cls-2" d="M1124.6,678.5a1.51,1.51,0,1,1-1.52-1.5h0a1.51,1.51,0,0,1,1.51,1.5"></path><path class="cls-2" d="M255.42,678.5a1.5,1.5,0,1,1-1.5-1.5,1.5,1.5,0,0,1,1.5,1.5"></path><path class="cls-2" d="M1016,678.5a1.51,1.51,0,1,1-1.52-1.5h0a1.5,1.5,0,0,1,1.5,1.5"></path><path class="cls-2" d="M146.78,678.5a1.51,1.51,0,1,1-1.52-1.5h0a1.51,1.51,0,0,1,1.51,1.5"></path><path class="cls-2" d="M1885.12,678.5a1.5,1.5,0,1,1-1.5-1.5,1.5,1.5,0,0,1,1.5,1.5"></path><path class="cls-2" d="M38.13,678.5a1.51,1.51,0,1,1-1.52-1.5h0a1.5,1.5,0,0,1,1.5,1.5"></path><path class="cls-2" d="M1776.48,895.08a1.51,1.51,0,1,1-1.51-1.51,1.52,1.52,0,0,1,1.51,1.51h0"></path><path class="cls-2" d="M1667.83,895.08a1.51,1.51,0,0,1-3,0,1.51,1.51,0,0,1,3-.35,2,2,0,0,1,0,.35"></path><path class="cls-2" d="M798.66,895.08a1.51,1.51,0,1,1-1.51-1.51,1.52,1.52,0,0,1,1.51,1.51h0"></path><path class="cls-2" d="M1559.18,895.08a1.5,1.5,0,1,1-1.5-1.51,1.5,1.5,0,0,1,1.5,1.51h0"></path><path class="cls-2" d="M690,895.08a1.51,1.51,0,0,1-3,0,1.51,1.51,0,0,1,3-.35,2,2,0,0,1,0,.35"></path><path class="cls-2" d="M1450.54,895.08a1.51,1.51,0,1,1-1.51-1.51,1.52,1.52,0,0,1,1.51,1.51h0"></path><path class="cls-2" d="M581.36,895.08a1.5,1.5,0,1,1-1.5-1.51,1.5,1.5,0,0,1,1.5,1.51h0"></path><path class="cls-2" d="M1341.89,895.08a1.51,1.51,0,0,1-3,0,1.51,1.51,0,0,1,3-.35,2,2,0,0,1,0,.35"></path><path class="cls-2" d="M472.72,895.08a1.51,1.51,0,1,1-1.51-1.51,1.52,1.52,0,0,1,1.51,1.51h0"></path><path class="cls-2" d="M1233.24,895.08a1.5,1.5,0,1,1-1.5-1.51,1.5,1.5,0,0,1,1.5,1.51h0"></path><path class="cls-2" d="M364.07,895.08a1.51,1.51,0,0,1-3,0,1.51,1.51,0,0,1,3-.35,2,2,0,0,1,0,.35"></path><path class="cls-2" d="M1124.6,895.08a1.51,1.51,0,1,1-1.51-1.51,1.52,1.52,0,0,1,1.51,1.51h0"></path><path class="cls-2" d="M255.42,895.08a1.5,1.5,0,1,1-1.5-1.51,1.5,1.5,0,0,1,1.5,1.51h0"></path><path class="cls-2" d="M1016,895.08a1.51,1.51,0,0,1-3,0,1.51,1.51,0,0,1,3-.35,2,2,0,0,1,0,.35"></path><path class="cls-2" d="M146.78,895.08a1.51,1.51,0,1,1-1.51-1.51,1.52,1.52,0,0,1,1.51,1.51h0"></path><path class="cls-2" d="M1885.12,895.08a1.5,1.5,0,1,1-1.5-1.51,1.5,1.5,0,0,1,1.5,1.51h0"></path><path class="cls-2" d="M38.13,895.08a1.51,1.51,0,0,1-3,0,1.51,1.51,0,0,1,3-.35,2,2,0,0,1,0,.35"></path><path class="cls-2" d="M907.3,895.08a1.5,1.5,0,1,1-1.5-1.51,1.5,1.5,0,0,1,1.5,1.51h0"></path><path class="cls-2" d="M907.3,786.71a1.5,1.5,0,1,1-1.5-1.51,1.5,1.5,0,0,1,1.5,1.51h0"></path><path class="cls-2" d="M1776.48,786.71a1.51,1.51,0,1,1-1.51-1.51,1.52,1.52,0,0,1,1.51,1.51h0"></path><path class="cls-2" d="M1667.83,786.71a1.51,1.51,0,0,1-3,0,1.51,1.51,0,0,1,3-.35,2,2,0,0,1,0,.35"></path><path class="cls-2" d="M798.66,786.71a1.51,1.51,0,1,1-1.51-1.51,1.52,1.52,0,0,1,1.51,1.51h0"></path><path class="cls-2" d="M1559.18,786.71a1.5,1.5,0,1,1-1.5-1.51,1.5,1.5,0,0,1,1.5,1.51h0"></path><path class="cls-2" d="M690,786.71a1.51,1.51,0,0,1-3,0,1.51,1.51,0,0,1,3-.35,2,2,0,0,1,0,.35"></path><path class="cls-2" d="M1450.54,786.71a1.51,1.51,0,1,1-1.51-1.51,1.52,1.52,0,0,1,1.51,1.51h0"></path><path class="cls-2" d="M581.36,786.71a1.5,1.5,0,1,1-1.5-1.51,1.5,1.5,0,0,1,1.5,1.51h0"></path><path class="cls-2" d="M1341.89,786.71a1.51,1.51,0,0,1-3,0,1.51,1.51,0,0,1,3-.35,2,2,0,0,1,0,.35"></path><path class="cls-2" d="M472.72,786.71a1.51,1.51,0,1,1-1.51-1.51,1.52,1.52,0,0,1,1.51,1.51h0"></path><path class="cls-2" d="M1233.24,786.71a1.5,1.5,0,1,1-1.5-1.51,1.5,1.5,0,0,1,1.5,1.51h0"></path><path class="cls-2" d="M364.07,786.71a1.51,1.51,0,0,1-3,0,1.51,1.51,0,0,1,3-.35,2,2,0,0,1,0,.35"></path><path class="cls-2" d="M1124.6,786.71a1.51,1.51,0,1,1-1.51-1.51,1.52,1.52,0,0,1,1.51,1.51h0"></path><path class="cls-2" d="M255.42,786.71a1.5,1.5,0,1,1-1.5-1.51,1.5,1.5,0,0,1,1.5,1.51h0"></path><path class="cls-2" d="M1016,786.71a1.51,1.51,0,0,1-3,0,1.51,1.51,0,0,1,3-.35,2,2,0,0,1,0,.35"></path><path class="cls-2" d="M146.78,786.71a1.51,1.51,0,1,1-1.51-1.51,1.52,1.52,0,0,1,1.51,1.51h0"></path><path class="cls-2" d="M1885.12,786.71a1.5,1.5,0,1,1-1.5-1.51,1.5,1.5,0,0,1,1.5,1.51h0"></path><path class="cls-2" d="M38.13,786.71a1.51,1.51,0,0,1-3,0,1.51,1.51,0,0,1,3-.35,2,2,0,0,1,0,.35"></path><path class="cls-2" d="M907.3,1003.62a1.5,1.5,0,1,1-1.5-1.51,1.5,1.5,0,0,1,1.5,1.51h0"></path><path class="cls-2" d="M1776.48,1003.62a1.51,1.51,0,1,1-1.51-1.51,1.52,1.52,0,0,1,1.51,1.51h0"></path><path class="cls-2" d="M1667.83,1003.62a1.51,1.51,0,0,1-3,0,1.51,1.51,0,0,1,3-.35,2,2,0,0,1,0,.35"></path><path class="cls-2" d="M798.66,1003.62a1.51,1.51,0,1,1-1.51-1.51,1.52,1.52,0,0,1,1.51,1.51h0"></path><path class="cls-2" d="M1559.18,1003.62a1.5,1.5,0,1,1-1.5-1.51,1.5,1.5,0,0,1,1.5,1.51h0"></path><path class="cls-2" d="M690,1003.62a1.51,1.51,0,0,1-3,0,1.51,1.51,0,0,1,3-.35,2,2,0,0,1,0,.35"></path><path class="cls-2" d="M1450.54,1003.62a1.51,1.51,0,1,1-1.51-1.51,1.52,1.52,0,0,1,1.51,1.51h0"></path><path class="cls-2" d="M581.36,1003.62a1.5,1.5,0,1,1-1.5-1.51,1.5,1.5,0,0,1,1.5,1.51h0"></path><path class="cls-2" d="M1341.89,1003.62a1.51,1.51,0,0,1-3,0,1.51,1.51,0,0,1,3-.35,2,2,0,0,1,0,.35"></path><path class="cls-2" d="M472.72,1003.62a1.51,1.51,0,1,1-1.51-1.51,1.52,1.52,0,0,1,1.51,1.51h0"></path><path class="cls-2" d="M1233.24,1003.62a1.5,1.5,0,1,1-1.5-1.51,1.5,1.5,0,0,1,1.5,1.51h0"></path><path class="cls-2" d="M364.07,1003.62a1.51,1.51,0,0,1-3,0,1.51,1.51,0,0,1,3-.35,2,2,0,0,1,0,.35"></path><path class="cls-2" d="M1124.6,1003.62a1.51,1.51,0,1,1-1.51-1.51,1.52,1.52,0,0,1,1.51,1.51h0"></path><path class="cls-2" d="M255.42,1003.62a1.5,1.5,0,1,1-1.5-1.51,1.5,1.5,0,0,1,1.5,1.51h0"></path><path class="cls-2" d="M1016,1003.62a1.51,1.51,0,0,1-3,0,1.51,1.51,0,0,1,3-.35,2,2,0,0,1,0,.35"></path><path class="cls-2" d="M146.78,1003.62a1.51,1.51,0,1,1-1.51-1.51,1.52,1.52,0,0,1,1.51,1.51h0"></path><path class="cls-2" d="M1885.12,1003.62a1.5,1.5,0,1,1-1.5-1.51,1.5,1.5,0,0,1,1.5,1.51h0"></path><path class="cls-2" d="M38.13,1003.62a1.51,1.51,0,0,1-3,0,1.51,1.51,0,0,1,3-.35,2,2,0,0,1,0,.35"></path><path class="cls-2" d="M1776.48,136.48a1.51,1.51,0,1,1-1.54-1.48h.06a1.52,1.52,0,0,1,1.51,1.51h0"></path><path class="cls-2" d="M1667.83,136.48a1.51,1.51,0,0,1-3,0,1.51,1.51,0,0,1,3-.35,2,2,0,0,1,0,.35"></path><path class="cls-2" d="M798.66,136.48a1.51,1.51,0,1,1-1.51-1.51,1.52,1.52,0,0,1,1.51,1.51h0"></path><path class="cls-2" d="M1559.18,136.48a1.5,1.5,0,1,1-1.5-1.51,1.5,1.5,0,0,1,1.5,1.51h0"></path><path class="cls-2" d="M690,136.48a1.51,1.51,0,0,1-3,0,1.51,1.51,0,0,1,3-.35,2,2,0,0,1,0,.35"></path><path class="cls-2" d="M1450.54,136.48A1.51,1.51,0,1,1,1449,135a1.52,1.52,0,0,1,1.54,1.48h0"></path><path class="cls-2" d="M581.36,136.48a1.5,1.5,0,1,1-1.5-1.51,1.5,1.5,0,0,1,1.5,1.51h0"></path><path class="cls-2" d="M1341.89,136.48a1.51,1.51,0,0,1-3,0,1.51,1.51,0,0,1,3-.35,2,2,0,0,1,0,.35"></path><path class="cls-2" d="M472.72,136.48a1.51,1.51,0,1,1-1.51-1.51,1.52,1.52,0,0,1,1.51,1.51h0"></path><path class="cls-2" d="M1233.24,136.48a1.5,1.5,0,1,1-1.5-1.51,1.5,1.5,0,0,1,1.5,1.51h0"></path><path class="cls-2" d="M364.07,136.48a1.51,1.51,0,0,1-3,0,1.51,1.51,0,0,1,3-.35,2,2,0,0,1,0,.35"></path><path class="cls-2" d="M1124.6,136.48a1.51,1.51,0,1,1-1.51-1.51,1.52,1.52,0,0,1,1.51,1.51h0"></path><path class="cls-2" d="M255.42,136.48a1.5,1.5,0,1,1-1.5-1.51,1.5,1.5,0,0,1,1.5,1.51h0"></path><path class="cls-2" d="M1016,136.48a1.51,1.51,0,0,1-3,0,1.51,1.51,0,0,1,3-.35,2,2,0,0,1,0,.35"></path><path class="cls-2" d="M146.78,136.48a1.51,1.51,0,1,1-1.51-1.51h0a1.52,1.52,0,0,1,1.51,1.51"></path><path class="cls-2" d="M1885.12,136.48a1.5,1.5,0,1,1-1.5-1.51,1.5,1.5,0,0,1,1.5,1.51h0"></path><path class="cls-2" d="M38.13,136.48a1.51,1.51,0,0,1-3,0,1.51,1.51,0,0,1,3-.35,2,2,0,0,1,0,.35"></path><path class="cls-2" d="M907.3,136.48a1.5,1.5,0,1,1-1.5-1.51,1.5,1.5,0,0,1,1.5,1.51h0"></path><path class="cls-2" d="M907.3,28.1a1.5,1.5,0,1,1-1.5-1.5,1.5,1.5,0,0,1,1.5,1.5"></path><path class="cls-2" d="M1776.48,28.1a1.51,1.51,0,0,1-3,.35,2,2,0,0,1,0-.35,1.51,1.51,0,0,1,3,0"></path><path class="cls-2" d="M1667.83,28.1a1.51,1.51,0,1,1-1.52-1.5h0a1.51,1.51,0,0,1,1.5,1.5"></path><path class="cls-2" d="M798.66,28.1a1.51,1.51,0,0,1-3,.35,2,2,0,0,1,0-.35,1.51,1.51,0,0,1,3,0"></path><path class="cls-2" d="M1559.18,28.1a1.5,1.5,0,1,1-1.5-1.5,1.5,1.5,0,0,1,1.5,1.5"></path><path class="cls-2" d="M690,28.1a1.51,1.51,0,1,1-1.52-1.5h0a1.51,1.51,0,0,1,1.5,1.5"></path><path class="cls-2" d="M1450.54,28.1a1.51,1.51,0,0,1-3,.35,2,2,0,0,1,0-.35,1.51,1.51,0,0,1,3,0"></path><path class="cls-2" d="M581.36,28.1a1.5,1.5,0,1,1-1.5-1.5,1.5,1.5,0,0,1,1.5,1.5"></path><path class="cls-2" d="M1341.89,28.1a1.51,1.51,0,1,1-1.52-1.5h0a1.51,1.51,0,0,1,1.5,1.5"></path><path class="cls-2" d="M472.72,28.1a1.51,1.51,0,0,1-3,.35,2,2,0,0,1,0-.35,1.51,1.51,0,0,1,3,0"></path><path class="cls-2" d="M1233.24,28.1a1.5,1.5,0,1,1-1.5-1.5,1.5,1.5,0,0,1,1.5,1.5"></path><path class="cls-2" d="M364.07,28.1a1.51,1.51,0,1,1-1.52-1.5h0a1.51,1.51,0,0,1,1.5,1.5"></path><path class="cls-2" d="M1124.6,28.1a1.51,1.51,0,0,1-3,.35,2,2,0,0,1,0-.35,1.51,1.51,0,0,1,3,0"></path><path class="cls-2" d="M255.42,28.1a1.5,1.5,0,1,1-1.5-1.5,1.5,1.5,0,0,1,1.5,1.5"></path><path class="cls-2" d="M1016,28.1a1.51,1.51,0,1,1-1.52-1.5h0a1.51,1.51,0,0,1,1.5,1.5"></path><path class="cls-2" d="M146.78,28.1a1.51,1.51,0,0,1-3,.35,2,2,0,0,1,0-.35,1.51,1.51,0,0,1,3,0"></path><path class="cls-2" d="M1885.12,28.1a1.5,1.5,0,1,1-1.5-1.5,1.5,1.5,0,0,1,1.5,1.5"></path><path class="cls-2" d="M38.13,28.1a1.51,1.51,0,1,1-1.52-1.5h0a1.51,1.51,0,0,1,1.5,1.5"></path><path class="cls-2" d="M907.3,245a1.5,1.5,0,1,1-1.5-1.5,1.5,1.5,0,0,1,1.5,1.5"></path><path class="cls-2" d="M1776.48,245a1.51,1.51,0,0,1-3,.35,2,2,0,0,1,0-.35,1.51,1.51,0,0,1,3,0"></path><path class="cls-2" d="M1667.83,245a1.51,1.51,0,1,1-1.52-1.5h0a1.51,1.51,0,0,1,1.5,1.5"></path><path class="cls-2" d="M798.66,245a1.51,1.51,0,0,1-3,.35,2,2,0,0,1,0-.35,1.51,1.51,0,0,1,3,0"></path><path class="cls-2" d="M1559.18,245a1.5,1.5,0,1,1-1.5-1.5,1.5,1.5,0,0,1,1.5,1.5"></path><path class="cls-2" d="M690,245a1.51,1.51,0,1,1-1.52-1.5h0A1.51,1.51,0,0,1,690,245"></path><path class="cls-2" d="M1450.54,245a1.51,1.51,0,0,1-3,.35,2,2,0,0,1,0-.35,1.51,1.51,0,0,1,3,0"></path><path class="cls-2" d="M581.36,245a1.5,1.5,0,1,1-1.5-1.5,1.5,1.5,0,0,1,1.5,1.5"></path><path class="cls-2" d="M1341.89,245a1.51,1.51,0,1,1-1.52-1.5h0a1.51,1.51,0,0,1,1.5,1.5"></path><path class="cls-2" d="M472.72,245a1.51,1.51,0,0,1-3,.35,2,2,0,0,1,0-.35,1.51,1.51,0,0,1,3,0"></path><path class="cls-2" d="M1233.24,245a1.5,1.5,0,1,1-1.5-1.5,1.5,1.5,0,0,1,1.5,1.5"></path><path class="cls-2" d="M364.07,245a1.51,1.51,0,1,1-1.52-1.5h0a1.51,1.51,0,0,1,1.5,1.5"></path><path class="cls-2" d="M1124.6,245a1.51,1.51,0,0,1-3,.35,2,2,0,0,1,0-.35,1.51,1.51,0,0,1,3,0"></path><path class="cls-2" d="M255.42,245a1.5,1.5,0,1,1-1.5-1.5,1.5,1.5,0,0,1,1.5,1.5"></path><path class="cls-2" d="M1016,245a1.51,1.51,0,1,1-1.52-1.5h0a1.51,1.51,0,0,1,1.5,1.5"></path><path class="cls-2" d="M146.78,245a1.51,1.51,0,0,1-3,.35,2,2,0,0,1,0-.35,1.51,1.51,0,0,1,3,0"></path><path class="cls-2" d="M1885.12,245a1.5,1.5,0,1,1-1.5-1.5,1.5,1.5,0,0,1,1.5,1.5"></path><path class="cls-2" d="M38.13,245a1.51,1.51,0,1,1-1.52-1.5h0a1.51,1.51,0,0,1,1.5,1.5"></path><path class="cls-2" d="M907.3,353.22a1.5,1.5,0,1,1-1.5-1.5,1.5,1.5,0,0,1,1.5,1.5"></path><path class="cls-2" d="M1776.48,353.22a1.51,1.51,0,1,1-1.52-1.5h0a1.51,1.51,0,0,1,1.51,1.5"></path><path class="cls-2" d="M1667.83,353.22a1.51,1.51,0,1,1-1.52-1.5h0a1.5,1.5,0,0,1,1.5,1.5"></path><path class="cls-2" d="M798.66,353.22a1.51,1.51,0,1,1-1.52-1.5h0a1.51,1.51,0,0,1,1.51,1.5"></path><path class="cls-2" d="M1559.18,353.22a1.5,1.5,0,1,1-1.5-1.5,1.5,1.5,0,0,1,1.5,1.5"></path><path class="cls-2" d="M690,353.22a1.51,1.51,0,1,1-1.52-1.5h0a1.5,1.5,0,0,1,1.5,1.5"></path><path class="cls-2" d="M1450.54,353.22a1.51,1.51,0,1,1-1.52-1.5h0a1.51,1.51,0,0,1,1.51,1.5"></path><path class="cls-2" d="M581.36,353.22a1.5,1.5,0,1,1-1.5-1.5,1.5,1.5,0,0,1,1.5,1.5"></path><path class="cls-2" d="M1341.89,353.22a1.51,1.51,0,1,1-1.52-1.5h0a1.5,1.5,0,0,1,1.5,1.5"></path><path class="cls-2" d="M472.72,353.22a1.51,1.51,0,1,1-1.52-1.5h0a1.51,1.51,0,0,1,1.51,1.5"></path><path class="cls-2" d="M1233.24,353.22a1.5,1.5,0,1,1-1.5-1.5,1.5,1.5,0,0,1,1.5,1.5"></path><path class="cls-2" d="M364.07,353.22a1.51,1.51,0,1,1-1.52-1.5h0a1.5,1.5,0,0,1,1.5,1.5"></path><path class="cls-2" d="M1124.6,353.22a1.51,1.51,0,1,1-1.52-1.5h0a1.51,1.51,0,0,1,1.51,1.5"></path><path class="cls-2" d="M255.42,353.22a1.5,1.5,0,1,1-1.5-1.5,1.5,1.5,0,0,1,1.5,1.5"></path><path class="cls-2" d="M1016,353.22a1.51,1.51,0,1,1-1.52-1.5h0a1.5,1.5,0,0,1,1.5,1.5"></path><path class="cls-2" d="M146.78,353.22a1.51,1.51,0,1,1-1.52-1.5h0a1.51,1.51,0,0,1,1.51,1.5"></path><path class="cls-2" d="M1885.12,353.22a1.5,1.5,0,1,1-1.5-1.5,1.5,1.5,0,0,1,1.5,1.5"></path><path class="cls-2" d="M38.13,353.22a1.51,1.51,0,1,1-1.52-1.5h0a1.5,1.5,0,0,1,1.5,1.5"></path></svg> 