<?xml version="1.0" encoding="UTF-8"?> <svg xmlns="http://www.w3.org/2000/svg" id="Layer_1" data-name="Layer 1" viewBox="0 0 512 512"><defs><style>.cls-1{fill:#0099a8;}</style></defs><polygon class="cls-1" points="77.35 192.06 77.35 272.93 77.35 346.21 125.03 346.21 125.03 192.06 77.35 192.06"></polygon><polygon class="cls-1" points="179.76 192.06 179.76 272.94 179.76 346.2 227.43 346.2 227.43 192.06 179.76 192.06"></polygon><polygon class="cls-1" points="282.17 192.06 282.17 272.94 282.17 346.2 329.84 346.2 329.84 192.06 282.17 192.06"></polygon><polygon class="cls-1" points="77.35 119.77 77.35 163.19 254.8 163.19 432.25 163.19 432.25 119.77 77.35 119.77"></polygon><polygon class="cls-1" points="254.8 1 77.35 60.15 77.35 104.99 254.8 45.83 432.25 104.99 432.25 60.15 254.8 1"></polygon><path class="cls-1" d="M432.25,342.78c-.94,2.61-18.15,32.29-131.44,32.29h-92c-116.21.89-129.22,16-131.44,17.62v44.37c2.22-1.61,15.23-16.73,131.44-17.62h92c113.29,0,130.5-29.68,131.44-32.29Z"></path><path class="cls-1" d="M432.25,416.72C431.31,419.33,414.1,449,300.81,449h-92c-116.21.89-129.22,16-131.44,17.63V511c2.22-1.61,15.23-16.73,131.44-17.62h92c113.29,0,130.5-29.69,131.44-32.3Z"></path><path class="cls-1" d="M384.58,192.06V338.27c39.09-9,47-22.84,47.67-24.58V192.06Z"></path></svg> 