<?xml version="1.0" encoding="UTF-8"?> <svg xmlns="http://www.w3.org/2000/svg" viewBox="0 0 259.36 54.07"><defs><style>.cls-1{fill:#323e48;}.cls-2{fill:#007297;}</style></defs><g id="Layer_2" data-name="Layer 2"><g id="Layer_1-2" data-name="Layer 1"><path class="cls-1" d="M0,2.7H27.22V8.17H6.53V25H25.65v5.4H6.53V53.25H0Z"></path><path class="cls-1" d="M40.58,6.75a4.09,4.09,0,0,1-8.18,0,4,4,0,0,1,4.13-4.12A3.91,3.91,0,0,1,40.58,6.75Zm-7.35,46.5V17h6.6v36.3Z"></path><path class="cls-1" d="M48.15,28.27c0-4.27-.07-7.95-.3-11.32h5.78l.22,7.12h.3c1.65-4.87,5.63-7.94,10.05-7.94a7.24,7.24,0,0,1,1.88.22v6.22a10,10,0,0,0-2.25-.22c-4.65,0-7.95,3.52-8.85,8.47a18.59,18.59,0,0,0-.3,3.08V53.25H48.15Z"></path><path class="cls-1" d="M69.9,46.5a17.35,17.35,0,0,0,8.7,2.62c4.8,0,7.05-2.4,7.05-5.4s-1.87-4.87-6.75-6.67c-6.52-2.33-9.6-5.93-9.6-10.28,0-5.85,4.73-10.64,12.52-10.64a18.14,18.14,0,0,1,8.93,2.24l-1.65,4.8a14.14,14.14,0,0,0-7.42-2.1c-3.9,0-6.08,2.25-6.08,4.95,0,3,2.18,4.35,6.9,6.15C88.8,34.57,92,37.72,92,43.12,92,49.5,87.07,54,78.45,54a20.69,20.69,0,0,1-10.2-2.48Z"></path><path class="cls-1" d="M106.57,6.53V17H116v5h-9.45V41.55c0,4.5,1.28,7.05,5,7.05a15,15,0,0,0,3.83-.45l.3,5a16.25,16.25,0,0,1-5.85.9,9.16,9.16,0,0,1-7.13-2.78c-1.87-1.95-2.54-5.17-2.54-9.45V22H94.5V17h5.63V8.25Z"></path><path class="cls-1" d="M137.32,2.7h6.53V47.77h21.6v5.48H137.32Z"></path><path class="cls-1" d="M235.43,33.6h.15c.9-1.28,2.18-2.85,3.22-4.13L249.45,17h7.95l-14,14.92,16,21.38h-8L238.8,35.85l-3.37,3.75V53.25h-6.52V0h6.52Z"></path><path class="cls-1" d="M205.35,16.13a18.54,18.54,0,0,0-8.89,2.17,17.15,17.15,0,0,1,3.95,3.89,10.33,10.33,0,0,1,4.79-1.12c7.81,0,10.88,7.8,10.88,14,0,8.18-4.73,14.1-11,14.1a9.55,9.55,0,0,1-4.78-1.26,17.74,17.74,0,0,1-4.22,4,17.64,17.64,0,0,0,8.71,2.21c8.77,0,18.07-5.85,18.07-19.27C222.83,23.7,215.78,16.13,205.35,16.13Z"></path><path class="cls-2" d="M190.57,23.72a20.94,20.94,0,0,0-3.22,11.68,20.39,20.39,0,0,0,3,11.07A11.8,11.8,0,0,0,194.66,40a18.75,18.75,0,0,1-.63-4.84,20.44,20.44,0,0,1,.62-5A11.66,11.66,0,0,0,190.57,23.72Z"></path><path class="cls-1" d="M203.17,34.8c0,13.42-9.3,19.27-18.07,19.27-9.83,0-17.4-7.2-17.4-18.67,0-12.15,8-19.27,18-19.27C196.12,16.13,203.17,23.7,203.17,34.8Zm-28.8.37c0,7.95,4.58,13.95,11,13.95,6.3,0,11-5.92,11-14.1,0-6.15-3.07-14-10.87-14S174.37,28.27,174.37,35.17Z"></path></g></g></svg> 